{"asset":{"generator":"glTF-Transform v4.0.2","version":"2.0"},"accessors":[{"type":"VEC3","componentType":5126,"count":20812,"max":[0.9227399230003357,1.503922462463379,0.5221953392028809],"min":[-1.0991122722625732,-1.217537522315979,-0.109275683760643],"bufferView":0,"byteOffset":0},{"type":"VEC3","componentType":5126,"count":20812,"bufferView":0,"byteOffset":12},{"type":"VEC2","componentType":5126,"count":20812,"bufferView":0,"byteOffset":24},{"type":"VEC2","componentType":5126,"count":20812,"bufferView":0,"byteOffset":32},{"type":"VEC2","componentType":5126,"count":20812,"bufferView":0,"byteOffset":40},{"type":"VEC4","componentType":5121,"count":20812,"normalized":true,"bufferView":0,"byteOffset":48},{"type":"VEC3","componentType":5126,"count":20812,"bufferView":0,"byteOffset":52},{"type":"SCALAR","componentType":5123,"count":120270,"bufferView":1,"byteOffset":0},{"type":"SCALAR","componentType":5123,"count":134910,"bufferView":1,"byteOffset":240540},{"type":"VEC3","componentType":5126,"count":23324,"max":[0.9238423705101013,1.503922462463379,0.1492220014333725],"min":[-1.0981063842773438,-1.2167755365371704,-0.49316003918647766],"bufferView":2,"byteOffset":0},{"type":"VEC3","componentType":5126,"count":23324,"bufferView":2,"byteOffset":12},{"type":"VEC2","componentType":5126,"count":23324,"bufferView":2,"byteOffset":24},{"type":"VEC2","componentType":5126,"count":23324,"bufferView":2,"byteOffset":32},{"type":"VEC2","componentType":5126,"count":23324,"bufferView":2,"byteOffset":40},{"type":"VEC4","componentType":5121,"count":23324,"normalized":true,"bufferView":2,"byteOffset":48},{"type":"VEC3","componentType":5126,"count":23324,"bufferView":2,"byteOffset":52}],"bufferViews":[{"buffer":0,"byteOffset":0,"byteLength":1331968,"byteStride":64,"target":34962},{"buffer":0,"byteOffset":1331968,"byteLength":510360,"target":34963},{"buffer":0,"byteOffset":1842328,"byteLength":1492736,"byteStride":64,"target":34962}],"samplers":[{"magFilter":9729,"minFilter":9987,"wrapS":10497,"wrapT":10497}],"textures":[{"source":0,"sampler":0},{"source":1,"sampler":0}],"images":[{"name":"back","mimeType":"image/jpeg","uri":"baseColor_1.jpg"},{"name":"front","mimeType":"image/jpeg","uri":"baseColor_2.jpg"}],"buffers":[{"uri":"pacoinflaoOG_final.bin","byteLength":3335064}],"materials":[{"name":"Material.back","doubleSided":true,"pbrMetallicRoughness":{"metallicFactor":0.36363598704338074,"baseColorTexture":{"index":0,"texCoord":1}},"extensions":{"KHR_materials_ior":{"ior":1},"KHR_materials_specular":{"specularFactor":0}}},{"name":"Material.front","doubleSided":true,"pbrMetallicRoughness":{"metallicFactor":0.36363598704338074,"baseColorTexture":{"index":1}},"extensions":{"KHR_materials_ior":{"ior":1},"KHR_materials_specular":{"specularFactor":0}}}],"meshes":[{"name":"Curve.006","primitives":[{"attributes":{"POSITION":0,"NORMAL":1,"TEXCOORD_0":2,"TEXCOORD_1":3,"TEXCOORD_2":4,"COLOR_0":5,"COLOR_1":6},"mode":4,"material":0,"indices":7},{"attributes":{"POSITION":9,"NORMAL":10,"TEXCOORD_0":11,"TEXCOORD_1":12,"TEXCOORD_2":13,"COLOR_0":14,"COLOR_1":15},"mode":4,"material":1,"indices":8}]}],"nodes":[{"name":"PACO.005","translation":[-29.04521942138672,0.5635417103767395,3.2898659706115723],"rotation":[1,0,0,7.549790126404332e-8],"mesh":0}],"scenes":[{"name":"Scene","nodes":[0]}],"scene":0,"extensionsUsed":["KHR_materials_ior","KHR_materials_specular"]}