{"asset":{"generator":"glTF-Transform v4.0.2","version":"2.0"},"accessors":[{"type":"VEC3","componentType":5126,"count":18664,"max":[1.0734775066375732,1.3616398572921753,-0.015522455796599388],"min":[-1.1123607158660889,-1.1418931484222412,-0.47969046235084534],"bufferView":0,"byteOffset":0},{"type":"VEC3","componentType":5126,"count":18664,"bufferView":0,"byteOffset":12},{"type":"VEC2","componentType":5126,"count":18664,"bufferView":0,"byteOffset":24},{"type":"VEC2","componentType":5126,"count":18664,"bufferView":0,"byteOffset":32},{"type":"VEC2","componentType":5126,"count":18664,"bufferView":0,"byteOffset":40},{"type":"VEC2","componentType":5126,"count":18664,"bufferView":0,"byteOffset":48},{"type":"VEC4","componentType":5121,"count":18664,"normalized":true,"bufferView":0,"byteOffset":56},{"type":"VEC4","componentType":5123,"count":18664,"normalized":true,"bufferView":0,"byteOffset":60},{"type":"SCALAR","componentType":5123,"count":108810,"bufferView":1,"byteOffset":0},{"type":"SCALAR","componentType":5123,"count":122766,"bufferView":1,"byteOffset":217620},{"type":"VEC3","componentType":5126,"count":21168,"max":[1.069556474685669,1.365856409072876,0.5360062122344971],"min":[-1.1162817478179932,-1.1403475999832153,-0.09400274604558945],"bufferView":2,"byteOffset":0},{"type":"VEC3","componentType":5126,"count":21168,"bufferView":2,"byteOffset":12},{"type":"VEC2","componentType":5126,"count":21168,"bufferView":2,"byteOffset":24},{"type":"VEC2","componentType":5126,"count":21168,"bufferView":2,"byteOffset":32},{"type":"VEC2","componentType":5126,"count":21168,"bufferView":2,"byteOffset":40},{"type":"VEC2","componentType":5126,"count":21168,"bufferView":2,"byteOffset":48},{"type":"VEC4","componentType":5121,"count":21168,"normalized":true,"bufferView":2,"byteOffset":56},{"type":"VEC4","componentType":5123,"count":21168,"normalized":true,"bufferView":2,"byteOffset":60}],"bufferViews":[{"buffer":0,"byteOffset":0,"byteLength":1269152,"byteStride":68,"target":34962},{"buffer":0,"byteOffset":1269152,"byteLength":463152,"target":34963},{"buffer":0,"byteOffset":1732304,"byteLength":1439424,"byteStride":68,"target":34962}],"samplers":[{"magFilter":9729,"minFilter":9987,"wrapS":10497,"wrapT":10497}],"textures":[{"source":0,"sampler":0},{"source":1,"sampler":0}],"images":[{"name":"Catriel Frente_84,5 x 90 cm","mimeType":"image/jpeg","uri":"baseColor_1.jpg"},{"name":"Unknown","mimeType":"image/jpeg","uri":"baseColor_2.jpg"}],"buffers":[{"uri":"CATRIEL4.bin","byteLength":3171728}],"materials":[{"name":"FRONT.001","doubleSided":true,"pbrMetallicRoughness":{"metallicFactor":0.22727273404598236,"baseColorTexture":{"index":0}},"extensions":{"KHR_materials_specular":{"specularFactor":0}}},{"name":"BACK.001","doubleSided":true,"pbrMetallicRoughness":{"metallicFactor":0.22727273404598236,"baseColorTexture":{"index":1,"texCoord":1}},"extensions":{"KHR_materials_specular":{"specularFactor":0}}}],"meshes":[{"name":"Curve.008","primitives":[{"attributes":{"POSITION":0,"NORMAL":1,"TEXCOORD_0":2,"TEXCOORD_1":3,"TEXCOORD_2":4,"TEXCOORD_3":5,"COLOR_0":6,"COLOR_1":7},"mode":4,"material":0,"indices":8},{"attributes":{"POSITION":10,"NORMAL":11,"TEXCOORD_0":12,"TEXCOORD_1":13,"TEXCOORD_2":14,"TEXCOORD_3":15,"COLOR_0":16,"COLOR_1":17},"mode":4,"material":1,"indices":9}]}],"nodes":[{"name":"CATOfront","translation":[-6.61667013168335,0.9363981485366821,-0.49540889263153076],"rotation":[1,0,0,7.549790126404332e-8],"mesh":0}],"scenes":[{"name":"Scene","nodes":[0]}],"scene":0,"extensionsUsed":["KHR_materials_specular"]}